<svg width="20" height="20" viewBox="0 0 20 20" fill="none" xmlns="http://www.w3.org/2000/svg">
<path d="M15.7083 6.625C15.7083 5.31265 14.6457 4.25 13.3333 4.25C12.021 4.25 10.9583 5.31265 10.9583 6.625C10.9583 7.93735 12.021 9 13.3333 9C14.6457 9 15.7083 7.93735 15.7083 6.625ZM17.2083 6.625C17.2083 8.76578 15.4741 10.5 13.3333 10.5C11.1926 10.5 9.45833 8.76578 9.45833 6.625C9.45833 4.48422 11.1926 2.75 13.3333 2.75C15.4741 2.75 17.2083 4.48422 17.2083 6.625ZM8.25 15.3571C8.25 15.9978 8.17436 15.9167 8.52941 15.9167H18.1373C18.4923 15.9167 18.4167 15.9978 18.4167 15.3571C18.4167 13.78 16.1015 12.8333 13.3333 12.8333C10.5652 12.8333 8.25 13.78 8.25 15.3571ZM13.3333 11.3333C16.856 11.3333 19.9167 12.5848 19.9167 15.3571C19.9167 16.8035 19.3454 17.4167 18.1373 17.4167H8.52941C7.32128 17.4167 6.75 16.8035 6.75 15.3571C6.75 12.5848 9.81066 11.3333 13.3333 11.3333ZM4.16667 5.41667C4.58088 5.41667 4.91667 5.75245 4.91667 6.16667L4.91583 8.41667L7.16667 8.41667C7.58088 8.41667 7.91667 8.75245 7.91667 9.16667C7.91667 9.58088 7.58088 9.91667 7.16667 9.91667H4.91583L4.91667 12.1667C4.91667 12.5809 4.58088 12.9167 4.16667 12.9167C3.75245 12.9167 3.41667 12.5809 3.41667 12.1667L3.41583 9.91667H1.16667C0.752454 9.91667 0.416668 9.58088 0.416668 9.16667C0.416668 8.75245 0.752454 8.41667 1.16667 8.41667L3.41583 8.41667L3.41667 6.16667C3.41667 5.75245 3.75245 5.41667 4.16667 5.41667Z" fill="#333333"/>
</svg>
