<svg width="25" height="25" viewBox="0 0 25 25" fill="none" xmlns="http://www.w3.org/2000/svg">
<path d="M17.3722 2.5C19.1553 2.5 19.8018 2.68565 20.4537 3.03427C21.1055 3.38288 21.6171 3.89446 21.9657 4.54631C22.3143 5.19816 22.5 5.84473 22.5 7.62777V17.3722C22.5 19.1553 22.3143 19.8018 21.9657 20.4537C21.6171 21.1055 21.1055 21.6171 20.4537 21.9657C19.8018 22.3143 19.1553 22.5 17.3722 22.5H7.62777C5.84473 22.5 5.19816 22.3143 4.54631 21.9657C3.89446 21.6171 3.38288 21.1055 3.03427 20.4537C2.68565 19.8018 2.5 19.1553 2.5 17.3722V7.62777C2.5 5.84473 2.68565 5.19816 3.03427 4.54631C3.38288 3.89446 3.89446 3.38288 4.54631 3.03427C5.19816 2.68565 5.84473 2.5 7.62777 2.5H17.3722ZM17.9361 4.5H7.06389C6.17237 4.5 5.84908 4.59283 5.52315 4.76713C5.19723 4.94144 4.94144 5.19723 4.76713 5.52315C4.59283 5.84908 4.5 6.17237 4.5 7.06389V17.9361C4.5 18.8276 4.59283 19.1509 4.76713 19.4768C4.94144 19.8028 5.19723 20.0586 5.52315 20.2329C5.84908 20.4072 6.17237 20.5 7.06389 20.5H17.9361C18.8276 20.5 19.1509 20.4072 19.4768 20.2329C19.8028 20.0586 20.0586 19.8028 20.2329 19.4768C20.4072 19.1509 20.5 18.8276 20.5 17.9361V7.06389C20.5 6.17237 20.4072 5.84908 20.2329 5.52315C20.0586 5.19723 19.8028 4.94144 19.4768 4.76713C19.1509 4.59283 18.8276 4.5 17.9361 4.5Z" fill="#B8C1CC"/>
</svg>
