<svg width="25" height="25" viewBox="0 0 25 25" fill="none" xmlns="http://www.w3.org/2000/svg">
<path fill-rule="evenodd" clip-rule="evenodd" d="M2.93597 4.68404C2.5 5.53969 2.5 6.65979 2.5 8.9V16.1C2.5 18.3402 2.5 19.4603 2.93597 20.316C3.31947 21.0686 3.93139 21.6805 4.68404 22.064C5.53969 22.5 6.65979 22.5 8.9 22.5H16.1C18.3402 22.5 19.4603 22.5 20.316 22.064C21.0686 21.6805 21.6805 21.0686 22.064 20.316C22.5 19.4603 22.5 18.3402 22.5 16.1V8.9C22.5 6.65979 22.5 5.53969 22.064 4.68404C21.6805 3.93139 21.0686 3.31947 20.316 2.93597C19.4603 2.5 18.3402 2.5 16.1 2.5H8.9C6.65979 2.5 5.53969 2.5 4.68404 2.93597C3.93139 3.31947 3.31947 3.93139 2.93597 4.68404ZM18.7071 9.70711C19.0976 9.31658 19.0976 8.68342 18.7071 8.29289C18.3166 7.90237 17.6834 7.90237 17.2929 8.29289L10.5 15.0858L7.70711 12.2929C7.31658 11.9024 6.68342 11.9024 6.29289 12.2929C5.90237 12.6834 5.90237 13.3166 6.29289 13.7071L9.79289 17.2071C10.1834 17.5976 10.8166 17.5976 11.2071 17.2071L18.7071 9.70711Z" fill="#333333"/>
</svg>
