<svg width="25" height="25" viewBox="0 0 25 25" fill="none" xmlns="http://www.w3.org/2000/svg">
<path d="M19.5 6.5L18.3714 20.2052C18.2646 21.5019 17.181 22.5 15.8798 22.5H9.12016C7.819 22.5 6.73538 21.5019 6.62859 20.2052L5.5 6.5H19.5ZM12.5 8.5C12.2239 8.5 12 8.72386 12 9V19.5C12 19.7761 12.2239 20 12.5 20C12.7761 20 13 19.7761 13 19.5V9C13 8.72386 12.7761 8.5 12.5 8.5ZM15.5 8.5C15.2204 8.5 14.9904 8.7202 14.9783 8.99953L14.5217 19.5005L14.5213 19.5213C14.5213 19.7857 14.7356 20 15 20C15.2796 20 15.5096 19.7798 15.5217 19.5005L15.9783 8.99953L15.9787 8.97873C15.9787 8.71434 15.7644 8.5 15.5 8.5ZM9.5 8.5L9.47921 8.50045C9.21506 8.51194 9.01023 8.73538 9.02172 8.99953L9.47828 19.5005C9.49043 19.7798 9.72041 20 10 20C10.0069 20 10.0139 19.9998 10.0208 19.9995C10.2849 19.9881 10.4898 19.7646 10.4783 19.5005L10.0217 8.99953C10.0096 8.7202 9.77959 8.5 9.5 8.5ZM13.5 2C14.5252 2 15.4063 2.61713 15.7921 3.50017L19.5 3.5C20.0523 3.5 20.5 3.94772 20.5 4.5V5.25C20.5 5.38807 20.3881 5.5 20.25 5.5H4.75C4.61193 5.5 4.5 5.38807 4.5 5.25V4.5C4.5 3.94772 4.94772 3.5 5.5 3.5L9.20795 3.50017C9.59368 2.61713 10.4748 2 11.5 2H13.5Z" fill="#333333"/>
</svg>
