<svg width="60" height="60" viewBox="0 0 60 60" fill="none" xmlns="http://www.w3.org/2000/svg">
<path d="M30 5C16.225 5 5 16.225 5 30C5 43.775 16.225 55 30 55C43.775 55 55 43.775 55 30C55 16.225 43.775 5 30 5ZM40 31.875H31.875V40C31.875 41.025 31.025 41.875 30 41.875C28.975 41.875 28.125 41.025 28.125 40V31.875H20C18.975 31.875 18.125 31.025 18.125 30C18.125 28.975 18.975 28.125 20 28.125H28.125V20C28.125 18.975 28.975 18.125 30 18.125C31.025 18.125 31.875 18.975 31.875 20V28.125H40C41.025 28.125 41.875 28.975 41.875 30C41.875 31.025 41.025 31.875 40 31.875Z" fill="#333333"/>
</svg>
