<svg width="20" height="20" viewBox="0 0 20 20" fill="none" xmlns="http://www.w3.org/2000/svg">
<path fill-rule="evenodd" clip-rule="evenodd" d="M11.8828 6.2317L4.35184 13.7626C4.17993 13.9345 4.08335 14.1677 4.08335 14.4108L4.08335 15.8334C4.08335 15.8794 4.12066 15.9167 4.16668 15.9167H5.58927C5.83239 15.9167 6.06554 15.8202 6.23745 15.6483L13.7684 8.11732L11.8828 6.2317ZM12.9434 5.17104L14.829 7.05666L15.7718 6.11385C15.9671 5.91859 15.9671 5.60201 15.7718 5.40674L14.5933 4.22823C14.3981 4.03297 14.0815 4.03297 13.8862 4.22823L12.9434 5.17104ZM3.29117 12.702L12.8256 3.16757C13.6066 2.38652 14.8729 2.38653 15.654 3.16757L16.8325 4.34609C17.6135 5.12713 17.6135 6.39346 16.8325 7.17451L7.29811 16.7089C6.8449 17.1621 6.23021 17.4167 5.58927 17.4167L4.16669 17.4167C3.29224 17.4167 2.58335 16.7079 2.58335 15.8334L2.58335 14.4108C2.58335 13.7699 2.83796 13.1552 3.29117 12.702Z" fill="#333333"/>
</svg>
